<svg xmlns="http://www.w3.org/2000/svg" xmlns:xlink="http://www.w3.org/1999/xlink" viewBox="0 0 377.99 436.14"><defs><style>.cls-1{opacity:0.1;}.cls-2,.cls-5,.cls-6,.cls-7{fill:none;}.cls-2,.cls-5,.cls-7{stroke:#2b3d7c;stroke-miterlimit:10;}.cls-2{stroke-width:0.25px;}.cls-3{fill:#2b3d7c;}.cls-4{opacity:0.5;}.cls-5{stroke-width:0.51px;}.cls-6{stroke-linecap:round;stroke-linejoin:round;stroke-width:3.05px;stroke:url(#New_Gradient_Swatch_1);}.cls-7{stroke-width:2.03px;}</style><linearGradient id="New_Gradient_Swatch_1" y1="218.07" x2="377.99" y2="218.07" gradientUnits="userSpaceOnUse"><stop offset="0" stop-color="#00adec"/><stop offset="1" stop-color="#62fbbc"/></linearGradient></defs><title>Harmony-home-technology-100</title><g id="Layer_20" data-name="Layer 20"><g class="cls-1"><polyline class="cls-2" points="125.56 218.07 157.28 236.38 220.71 236.38 252.43 218.07"/><polyline class="cls-2" points="125.56 218.07 157.28 236.38 220.71 236.38 252.43 218.07"/><line class="cls-2" x1="188.99" y1="181.46" x2="157.28" y2="163.15"/><line class="cls-2" x1="220.71" y1="272.42" x2="220.71" y2="236.09"/><line class="cls-2" x1="220.71" y1="236.09" x2="188.99" y2="181.46"/><polyline class="cls-2" points="157.28 272.42 157.28 236.09 189 181.46 220.71 163.15"/><polyline class="cls-2" points="157.28 272.42 125.56 254.4 125.56 218.08 157.28 163.44 189 145.13 220.71 163.15"/><polyline class="cls-2" points="220.71 272.42 252.43 254.4 252.43 218.08 220.71 163.44 189 145.13 157.28 163.15"/><polyline class="cls-2" points="125.56 217.49 125.56 254.11 157.28 272.42 220.71 272.42 252.43 254.11 252.43 217.49"/><polyline class="cls-2" points="252.43 218.07 252.43 181.45 220.71 163.14"/><polyline class="cls-2" points="157.28 163.15 125.56 181.16 125.56 217.49"/><polyline class="cls-2" points="220.71 272.12 189 290.43 157.28 272.42"/><circle class="cls-3" cx="188.99" cy="290.63" r="2.54"/><circle class="cls-3" cx="157.28" cy="236.57" r="2.54"/><circle class="cls-3" cx="157.28" cy="273.2" r="2.54"/><circle class="cls-3" cx="220.71" cy="273.2" r="2.54"/><circle class="cls-3" cx="125.57" cy="254.89" r="2.54"/><circle class="cls-3" cx="125.57" cy="218.26" r="2.54"/><circle class="cls-3" cx="252.42" cy="218.26" r="2.54"/><circle class="cls-3" cx="252.42" cy="181.65" r="2.54"/><circle class="cls-3" cx="125.57" cy="181.65" r="2.54"/><circle class="cls-3" cx="189" cy="145.32" r="2.54"/><circle class="cls-3" cx="220.71" cy="163.34" r="2.54"/><circle class="cls-3" cx="157.28" cy="163.34" r="2.54"/><circle class="cls-3" cx="252.42" cy="254.89" r="2.54"/><circle class="cls-3" cx="220.71" cy="236.57" r="2.54"/><circle class="cls-3" cx="188.99" cy="181.64" r="2.54"/></g><g class="cls-4"><polyline class="cls-5" points="93.85 218.5 141.42 245.97 236.57 245.97 284.14 218.5"/><polyline class="cls-5" points="93.85 218.5 141.42 245.97 236.57 245.97 284.14 218.5"/><line class="cls-5" x1="188.99" y1="163.58" x2="141.42" y2="136.12"/><line class="cls-5" x1="236.57" y1="300.02" x2="236.57" y2="245.54"/><line class="cls-5" x1="236.57" y1="245.54" x2="188.99" y2="163.58"/><polyline class="cls-5" points="141.42 300.02 141.42 245.54 189 163.58 236.57 136.12"/><polyline class="cls-5" points="141.42 300.02 93.85 273 93.85 218.51 141.42 136.56 189 109.09 236.57 136.12"/><polyline class="cls-5" points="236.57 300.02 284.14 273 284.14 218.51 236.57 136.56 189 109.09 141.42 136.12"/><polyline class="cls-5" points="93.85 217.63 93.85 272.56 141.42 300.02 236.57 300.02 284.14 272.56 284.14 217.63"/><polyline class="cls-5" points="284.14 218.5 284.14 163.57 236.57 136.1"/><polyline class="cls-5" points="141.42 136.12 93.85 163.14 93.85 217.63"/><polyline class="cls-5" points="236.57 299.58 189 327.05 141.42 300.02"/><circle class="cls-3" cx="188.99" cy="327.05" r="2.54"/><circle class="cls-3" cx="141.42" cy="245.97" r="2.54"/><circle class="cls-3" cx="141.42" cy="300.9" r="2.54"/><circle class="cls-3" cx="236.57" cy="300.9" r="2.54"/><circle class="cls-3" cx="93.85" cy="273.43" r="2.54"/><circle class="cls-3" cx="93.85" cy="218.5" r="2.54"/><circle class="cls-3" cx="284.14" cy="218.5" r="2.54"/><circle class="cls-3" cx="284.14" cy="163.58" r="2.54"/><circle class="cls-3" cx="93.85" cy="163.58" r="2.54"/><circle class="cls-3" cx="189" cy="109.09" r="2.54"/><circle class="cls-3" cx="236.57" cy="136.12" r="2.54"/><circle class="cls-3" cx="141.42" cy="136.12" r="2.54"/><circle class="cls-3" cx="284.14" cy="273.43" r="2.54"/><circle class="cls-3" cx="236.57" cy="245.97" r="2.54"/><circle class="cls-3" cx="188.99" cy="163.57" r="2.54"/></g><path class="cls-6" d="M189,334.27v34.12m-5.38-8.13,5.38,8.13,5.39-8.13m-5.39,33v41.34m-5.38-8.13,5.38,8.13,5.39-8.13M189,100.8v-33m5.38,8.13L189,67.75l-5.38,8.13m5.39-33V1.53m5.38,8.13L189,1.53l-5.38,8.13m105.8,266.79L319,293.62m-9.74.57,9.74-.57-4.33-8.74m25.83,21.25,35.75,20.78m-9.74.56,9.74-.56-4.33-8.75M88,159.36,59,142.52m9.74-.57-9.74.57,4.33,8.74m-61.58-42L37.53,130m-26-21.34-9.74.56L6.12,118m283.29,42,29.73-17.19m-4.36,8.73,4.36-8.73-9.74-.59m31.27-11.86,35.79-20.69m-4.35,8.73,4.35-8.73-9.74-.59M88,276.45,58.85,293.31m4.36-8.73-4.36,8.73,9.74.59M37.32,305.76,1.53,326.45m4.35-8.73-4.35,8.73,9.74.59"/><path class="cls-7" d="M331.71,218.72l-71.36,41.2H117.64l-71.36-41.2m0,0,71.36,41.2H260.35l71.36-41.2M117.64,95.14,189,136.34M260.35,341V259.27m0,0L189,136.34m71.36-41.2L189,136.34,117.64,259.27V341M260.35,95.14,189,54.6,117.64,95.8,46.28,218.73v81.74L117.64,341m142.71,0,71.36-40.53V218.73L260.35,95.8,189,54.6,117.64,95.14M46.28,217.41V299.8L117.64,341H260.35l71.36-41.2V217.41m0,1.31v-82.4l-71.36-41.2m-142.71,0L46.28,135.67v81.74M117.64,341,189,381.54l71.35-41.2"/><circle class="cls-3" cx="188.99" cy="381.54" r="4.58"/><circle class="cls-3" cx="117.64" cy="259.92" r="4.58"/><circle class="cls-3" cx="117.64" cy="342.31" r="4.58"/><circle class="cls-3" cx="260.35" cy="342.31" r="4.58"/><circle class="cls-3" cx="46.28" cy="301.12" r="4.58"/><circle class="cls-3" cx="46.28" cy="218.72" r="4.58"/><circle class="cls-3" cx="331.71" cy="218.72" r="4.58"/><circle class="cls-3" cx="331.71" cy="136.34" r="4.58"/><circle class="cls-3" cx="46.28" cy="136.34" r="4.58"/><circle class="cls-3" cx="189" cy="54.6" r="4.58"/><circle class="cls-3" cx="260.35" cy="95.14" r="4.58"/><circle class="cls-3" cx="117.64" cy="95.14" r="4.58"/><circle class="cls-3" cx="331.71" cy="301.12" r="4.58"/><circle class="cls-3" cx="260.35" cy="259.92" r="4.58"/><circle class="cls-3" cx="188.99" cy="136.32" r="4.58"/></g></svg>