<?xml version="1.0" encoding="UTF-8"?>
<svg width="22px" height="21px" viewBox="0 0 22 21" version="1.1" xmlns="http://www.w3.org/2000/svg" xmlns:xlink="http://www.w3.org/1999/xlink">
    <defs></defs>
    <g id="Symbols" stroke="none" stroke-width="1" fill="none" fill-rule="evenodd">
        <g id="02_Components/Mobile/Footer/Default" transform="translate(-106.000000, -354.000000)" fill="#758796">
            <g id="00_Assets/Icon/Social/github" transform="translate(106.000000, 354.000000)">
                <path d="M11.0000123,0.142834663 C16.6785905,0.142834663 21.2857388,4.74998301 21.2857388,10.4285612 C21.2857388,14.9687452 18.3393067,18.8258926 14.2544804,20.1919657 C13.7321584,20.2857158 13.5446582,19.9642869 13.5446582,19.6964294 C13.5446582,19.3616076 13.558051,18.2499991 13.558051,16.8705332 C13.558051,15.9062463 13.2366221,15.2901741 12.8616216,14.9687452 C15.1518029,14.7142806 17.5625201,13.8437439 17.5625201,9.89284629 C17.5625201,8.76784495 17.1607339,7.85712957 16.5044831,7.13391443 C16.6116261,6.86605696 16.9598408,5.82141286 16.3973401,4.40176831 C15.5401962,4.13391085 13.5714439,5.45980529 13.5714439,5.45980529 C12.7544786,5.23212644 11.870549,5.11159059 11.0000123,5.11159059 C10.1294755,5.11159059 9.24554588,5.23212644 8.42858062,5.45980529 C8.42858062,5.45980529 6.45982828,4.13391085 5.6026844,4.40176831 C5.04018373,5.82141286 5.38839843,6.86605696 5.49554141,7.13391443 C4.83929063,7.85712957 4.43750444,8.76784495 4.43750444,9.89284629 C4.43750444,13.830351 6.83482872,14.7142806 9.12501003,14.9687452 C8.83036682,15.2366027 8.56250936,15.6919603 8.46875924,16.3482111 C7.87947283,16.6160686 6.37947104,17.0714263 5.48214854,15.4910672 C4.91964787,14.5133875 3.90178951,14.4330303 3.90178951,14.4330303 C2.89732403,14.4196374 3.83482515,15.0624953 3.83482515,15.0624953 C4.5044688,15.3705314 4.97321936,16.5624971 4.97321936,16.5624971 C5.57589865,18.3973207 8.4419735,17.7812485 8.4419735,17.7812485 C8.4419735,18.6383924 8.45536637,19.4419648 8.45536637,19.6964294 C8.45536637,19.9642869 8.26786615,20.2857158 7.7455441,20.1919657 C3.6607178,18.8258926 0.714285714,14.9687452 0.714285714,10.4285612 C0.714285714,4.74998301 5.32143406,0.142834663 11.0000123,0.142834663 Z M4.61161179,14.9151737 C4.58482604,14.9687452 4.5044688,14.9821381 4.43750444,14.9419594 C4.3571472,14.9017808 4.31696858,14.8348165 4.34375433,14.781245 C4.37054007,14.7410664 4.43750444,14.7276735 4.51786168,14.7544592 C4.59821892,14.7946378 4.63839754,14.8616022 4.61161179,14.9151737 Z M5.02679086,15.3705314 C4.97321936,15.4241029 4.87946925,15.3973171 4.81250489,15.3303528 C4.74554052,15.2499955 4.73214765,15.1562454 4.78571914,15.1160668 C4.83929063,15.0624953 4.93304074,15.0892811 5.00000511,15.1562454 C5.06696947,15.2366027 5.08036235,15.3303528 5.02679086,15.3705314 Z M5.42857705,15.9732107 C5.37500556,16.0133893 5.26786257,15.9732107 5.20089821,15.8794606 C5.13393384,15.7857105 5.13393384,15.6785675 5.20089821,15.6383888 C5.26786257,15.5848174 5.37500556,15.624996 5.42857705,15.7187461 C5.49554141,15.8124962 5.49554141,15.9196392 5.42857705,15.9732107 Z M5.99107772,16.5357113 C5.93750623,16.6026757 5.81697037,16.5892828 5.72322026,16.4955327 C5.62947015,16.4151755 5.6026844,16.2946396 5.66964876,16.2410681 C5.72322026,16.1741038 5.84375611,16.1874966 5.93750623,16.2812468 C6.01786347,16.361604 6.04464921,16.4821399 5.99107772,16.5357113 Z M6.75447149,16.8705332 C6.72768574,16.9508904 6.60714988,16.991069 6.5000069,16.9508904 C6.37947104,16.9241047 6.2991138,16.8303546 6.32589955,16.7499973 C6.35268529,16.6696401 6.47322115,16.6294615 6.58036414,16.6562472 C6.70089999,16.6964258 6.78125723,16.7901759 6.75447149,16.8705332 Z M7.59822249,16.9374975 C7.59822249,17.0178548 7.50447238,17.0848191 7.38393652,17.0848191 C7.25000779,17.098212 7.15625768,17.0312477 7.15625768,16.9374975 C7.15625768,16.8571403 7.25000779,16.7901759 7.37054365,16.7901759 C7.49107951,16.7767831 7.59822249,16.8437474 7.59822249,16.9374975 Z M8.37500913,16.8035688 C8.38840201,16.883926 8.30804477,16.9642833 8.18750891,16.991069 C8.06697305,17.0178548 7.95983007,16.9642833 7.94643719,16.883926 C7.93304432,16.7901759 8.01340156,16.7098187 8.13393742,16.683033 C8.25447327,16.6696401 8.36161626,16.7232116 8.37500913,16.8035688 Z"></path>
            </g>
        </g>
    </g>
</svg>